{
  "version": "",
  "modules": [
    {
      "plugin": "Fundamental",
      "model": "SEQ3",
      "pos": [
        0.0,
        0.0
      ],
      "params": [
        2.0,
        0.0,
        0.0,
        8.0,
        1.5299997329711914,
        0.0,
        0.0,
        0.0,
        0.97499972581863403,
        0.0,
        0.0,
        0.0,
        1.5449999570846558,
        0.0,
        0.0,
        0.0,
        1.5299997329711914,
        0.0,
        0.0,
        0.0,
        1.1849997043609619,
        0.0,
        0.0,
        0.0,
        1.5600000619888306,
        0.0,
        0.0,
        0.0,
        1.9499994516372681,
        0.0,
        0.0,
        0.0,
        1.4099999666213989,
        0.0,
        0.0,
        0.0
      ],
      "data": {
        "running": true,
        "gates": [
          1,
          1,
          1,
          1,
          1,
          1,
          1,
          1
        ],
        "gateMode": 0
      }
    },
    {
      "plugin": "Fundamental",
      "model": "VCO",
      "pos": [
        330.0,
        0.0
      ],
      "params": [
        1.0,
        1.0,
        -29.159999847412109,
        0.0,
        0.5,
        0.0,
        0.0
      ]
    },
    {
      "plugin": "Bacon Music",
      "model": "Bitulator",
      "pos": [
        480.0,
        0.0
      ],
      "params": [
        1.0,
        1.0,
        6.9449996948242188,
        1.0,
        2.8629996776580811
      ]
    },
    {
      "plugin": "Fundamental",
      "model": "VCMixer",
      "pos": [
        600.0,
        0.0
      ],
      "params": [
        0.5,
        0.49049997329711914,
        0.0,
        0.0
      ]
    },
    {
      "plugin": "Core",
      "model": "AudioInterface",
      "pos": [
        750.0,
        0.0
      ],
      "params": [],
      "data": {
        "driver": 5,
        "device": 1,
        "sampleRate": 44100.0,
        "blockSize": 256
      }
    },
    {
      "plugin": "Fundamental",
      "model": "Scope",
      "pos": [
        930.0,
        0.0
      ],
      "params": [
        1.0,
        0.0,
        0.0,
        0.0,
        -15.035015106201172,
        0.0,
        0.0,
        0.0
      ],
      "data": {
        "lissajous": 0,
        "external": 0
      }
    }
  ],
  "wires": [
    {
      "outputModuleId": 0,
      "outputId": 1,
      "inputModuleId": 1,
      "inputId": 0
    },
    {
      "outputModuleId": 1,
      "outputId": 0,
      "inputModuleId": 2,
      "inputId": 0
    },
    {
      "outputModuleId": 3,
      "outputId": 0,
      "inputModuleId": 4,
      "inputId": 0
    },
    {
      "outputModuleId": 2,
      "outputId": 0,
      "inputModuleId": 3,
      "inputId": 1
    },
    {
      "outputModuleId": 3,
      "outputId": 1,
      "inputModuleId": 5,
      "inputId": 0
    },
    {
      "outputModuleId": 3,
      "outputId": 0,
      "inputModuleId": 4,
      "inputId": 1
    }
  ]
}