{
  "version": "master",
  "modules": [
    {
      "plugin": "BaconMusic",
      "version": "0.6.1",
      "model": "ChipYourWave",
      "pos": [
        0,
        0
      ],
      "params": [
        {
          "paramId": 0,
          "value": -17.9820061
        },
        {
          "paramId": 1,
          "value": 13.0
        },
        {
          "paramId": 2,
          "value": 14.0
        },
        {
          "paramId": 3,
          "value": 13.0
        },
        {
          "paramId": 4,
          "value": 12.0
        },
        {
          "paramId": 5,
          "value": 9.0
        },
        {
          "paramId": 6,
          "value": 10.0
        },
        {
          "paramId": 7,
          "value": 9.0
        },
        {
          "paramId": 8,
          "value": 8.0
        },
        {
          "paramId": 9,
          "value": 7.0
        },
        {
          "paramId": 10,
          "value": 6.0
        },
        {
          "paramId": 11,
          "value": 5.0
        },
        {
          "paramId": 12,
          "value": 7.0
        },
        {
          "paramId": 13,
          "value": 3.0
        },
        {
          "paramId": 14,
          "value": 2.0
        },
        {
          "paramId": 15,
          "value": 3.0
        },
        {
          "paramId": 16,
          "value": 2.0
        },
        {
          "paramId": 17,
          "value": 2.0
        },
        {
          "paramId": 18,
          "value": 6.0
        },
        {
          "paramId": 19,
          "value": 5.0
        },
        {
          "paramId": 20,
          "value": 5.0
        },
        {
          "paramId": 21,
          "value": 4.0
        },
        {
          "paramId": 22,
          "value": 5.0
        },
        {
          "paramId": 23,
          "value": 6.0
        },
        {
          "paramId": 24,
          "value": 7.0
        },
        {
          "paramId": 25,
          "value": 7.0
        },
        {
          "paramId": 26,
          "value": 7.0
        },
        {
          "paramId": 27,
          "value": 7.0
        },
        {
          "paramId": 28,
          "value": 11.0
        },
        {
          "paramId": 29,
          "value": 12.0
        },
        {
          "paramId": 30,
          "value": 13.0
        },
        {
          "paramId": 31,
          "value": 12.0
        },
        {
          "paramId": 32,
          "value": 11.0
        }
      ]
    },
    {
      "plugin": "Fundamental",
      "version": "0.6.0",
      "model": "VCMixer",
      "pos": [
        23,
        0
      ],
      "params": [
        {
          "paramId": 0,
          "value": 1.0
        },
        {
          "paramId": 1,
          "value": 0.610000432
        },
        {
          "paramId": 2,
          "value": 1.0
        },
        {
          "paramId": 3,
          "value": 1.0
        },
        {
          "paramId": 4,
          "value": 1.0
        }
      ]
    },
    {
      "plugin": "Core",
      "version": "master",
      "model": "AudioInterface",
      "pos": [
        33,
        0
      ],
      "params": [],
      "data": {
        "audio": {
          "driver": 5,
          "deviceName": "Apple Inc.: Built-in Output",
          "offset": 0,
          "maxChannels": 8,
          "sampleRate": 44100,
          "blockSize": 256
        }
      }
    },
    {
      "plugin": "Fundamental",
      "version": "0.6.0",
      "model": "Scope",
      "pos": [
        43,
        0
      ],
      "params": [
        {
          "paramId": 0,
          "value": 1.0
        },
        {
          "paramId": 1,
          "value": 0.0
        },
        {
          "paramId": 2,
          "value": 0.0
        },
        {
          "paramId": 3,
          "value": 0.0
        },
        {
          "paramId": 4,
          "value": -16.0
        },
        {
          "paramId": 5,
          "value": 0.0
        },
        {
          "paramId": 6,
          "value": 0.0
        },
        {
          "paramId": 7,
          "value": 0.0
        }
      ],
      "data": {
        "lissajous": 0,
        "external": 0
      }
    }
  ],
  "wires": [
    {
      "color": {
        "r": 0.788235366,
        "g": 0.0941176564,
        "b": 0.278431386,
        "a": 1.0
      },
      "outputModuleId": 0,
      "outputId": 0,
      "inputModuleId": 1,
      "inputId": 1
    },
    {
      "color": {
        "r": 0.0470588282,
        "g": 0.556862772,
        "b": 0.0823529437,
        "a": 1.0
      },
      "outputModuleId": 1,
      "outputId": 0,
      "inputModuleId": 2,
      "inputId": 0
    },
    {
      "color": {
        "r": 0.0352941193,
        "g": 0.525490224,
        "b": 0.678431392,
        "a": 1.0
      },
      "outputModuleId": 0,
      "outputId": 0,
      "inputModuleId": 3,
      "inputId": 0
    }
  ]
}