{
  "version": "",
  "modules": [
    {
      "plugin": "Core",
      "model": "AudioInterface",
      "pos": [
        705.0,
        0.0
      ],
      "params": [],
      "data": {
        "driver": 5,
        "device": 1,
        "sampleRate": 44100.0,
        "blockSize": 256
      }
    },
    {
      "plugin": "Fundamental",
      "model": "VCO",
      "pos": [
        405.0,
        0.0
      ],
      "params": [
        1.0,
        1.0,
        0.0,
        0.0,
        0.5,
        0.0,
        0.0
      ]
    },
    {
      "plugin": "Fundamental",
      "model": "SEQ3",
      "pos": [
        0.0,
        0.0
      ],
      "params": [
        0.69199711084365845,
        0.0,
        0.0,
        8.0,
        0.40499997138977051,
        0.0,
        0.0,
        0.0,
        2.0699996948242188,
        0.0,
        0.0,
        0.0,
        2.4149997234344482,
        0.0,
        0.0,
        0.0,
        0.70499998331069946,
        0.0,
        0.0,
        0.0,
        2.9849989414215088,
        0.0,
        0.0,
        0.0,
        0.83999979496002197,
        0.0,
        0.0,
        0.0,
        3.7650008201599121,
        0.0,
        0.0,
        0.0,
        1.6649998426437378,
        0.0,
        0.0,
        0.0
      ],
      "data": {
        "running": true,
        "gates": [
          1,
          1,
          1,
          1,
          1,
          1,
          1,
          1
        ],
        "gateMode": 0
      }
    },
    {
      "plugin": "Fundamental",
      "model": "VCMixer",
      "pos": [
        555.0,
        0.0
      ],
      "params": [
        0.28699985146522522,
        0.13350000977516174,
        0.2369997501373291,
        0.0
      ]
    },
    {
      "plugin": "Bacon Music",
      "model": "Glissinator",
      "pos": [
        330.0,
        0.0
      ],
      "params": [
        0.41250017285346985
      ]
    }
  ],
  "wires": [
    {
      "outputModuleId": 1,
      "outputId": 0,
      "inputModuleId": 3,
      "inputId": 1
    },
    {
      "outputModuleId": 1,
      "outputId": 1,
      "inputModuleId": 3,
      "inputId": 3
    },
    {
      "outputModuleId": 2,
      "outputId": 1,
      "inputModuleId": 4,
      "inputId": 0
    },
    {
      "outputModuleId": 3,
      "outputId": 0,
      "inputModuleId": 0,
      "inputId": 0
    },
    {
      "outputModuleId": 4,
      "outputId": 0,
      "inputModuleId": 1,
      "inputId": 0
    },
    {
      "outputModuleId": 3,
      "outputId": 0,
      "inputModuleId": 0,
      "inputId": 1
    }
  ]
}