{
  "version": "",
  "modules": [
    {
      "plugin": "Fundamental",
      "model": "SEQ3",
      "pos": [
        0.0,
        0.0
      ],
      "params": [
        2.0,
        0.0,
        0.0,
        8.0,
        0.0,
        0.0,
        0.0,
        0.0,
        1.3649996519088745,
        0.0,
        0.0,
        0.0,
        1.9199994802474976,
        0.0,
        0.0,
        0.0,
        1.0949995517730713,
        0.0,
        0.0,
        0.0,
        0.53999984264373779,
        0.0,
        0.0,
        0.0,
        0.59999984502792358,
        0.0,
        0.0,
        0.0,
        0.56999999284744263,
        0.0,
        0.0,
        0.0,
        0.79499965906143188,
        0.0,
        0.0,
        0.0
      ],
      "data": {
        "running": true,
        "gates": [
          1,
          1,
          1,
          1,
          1,
          1,
          1,
          1
        ],
        "gateMode": 0
      }
    },
    {
      "plugin": "BaconMusic",
      "model": "HarMoNee",
      "pos": [
        330.0,
        0.0
      ],
      "params": [
        0.0,
        1.0,
        0.0,
        1.0,
        0.0,
        0.0,
        0.0
      ]
    },
    {
      "plugin": "Fundamental",
      "model": "VCO",
      "pos": [
        450.0,
        0.0
      ],
      "params": [
        1.0,
        1.0,
        0.0,
        0.0,
        0.5,
        0.0,
        0.0
      ]
    },
    {
      "plugin": "Fundamental",
      "model": "VCO",
      "pos": [
        600.0,
        0.0
      ],
      "params": [
        1.0,
        1.0,
        0.0,
        0.0,
        0.5,
        0.0,
        0.0
      ]
    },
    {
      "plugin": "Fundamental",
      "model": "VCMixer",
      "pos": [
        750.0,
        0.0
      ],
      "params": [
        0.5,
        0.13049998879432678,
        0.21150004863739014,
        0.0
      ]
    },
    {
      "plugin": "Core",
      "model": "AudioInterface",
      "pos": [
        900.0,
        0.0
      ],
      "params": [],
      "data": {
        "driver": 5,
        "device": 1,
        "sampleRate": 44100.0,
        "blockSize": 256
      }
    }
  ],
  "wires": [
    {
      "outputModuleId": 2,
      "outputId": 2,
      "inputModuleId": 4,
      "inputId": 1
    },
    {
      "outputModuleId": 3,
      "outputId": 0,
      "inputModuleId": 4,
      "inputId": 3
    },
    {
      "outputModuleId": 4,
      "outputId": 0,
      "inputModuleId": 5,
      "inputId": 0
    },
    {
      "outputModuleId": 1,
      "outputId": 1,
      "inputModuleId": 3,
      "inputId": 0
    },
    {
      "outputModuleId": 0,
      "outputId": 1,
      "inputModuleId": 1,
      "inputId": 0
    },
    {
      "outputModuleId": 1,
      "outputId": 0,
      "inputModuleId": 2,
      "inputId": 0
    },
    {
      "outputModuleId": 4,
      "outputId": 0,
      "inputModuleId": 5,
      "inputId": 1
    }
  ]
}
